<svg width="53" height="62" viewBox="0 0 53 62" fill="none" xmlns="http://www.w3.org/2000/svg">
<path d="M2.88088 62C2.36392 61.6652 1.73244 61.532 1.2711 61.0947C0.21918 60.0952 -0.269971 58.8664 0.150469 57.4816C0.960267 54.8112 1.71771 52.105 3.21625 49.7028C6.24767 44.843 10.6026 41.9109 16.2793 40.9292C16.3791 40.9113 16.4789 40.8934 16.5787 40.8739C17.6503 40.661 18.6057 40.687 19.5823 41.4168C21.1905 42.6196 23.0931 43.2242 25.0955 43.4647C25.3556 43.4956 25.5421 43.598 25.7352 43.7573C27.8946 45.5533 30.9947 44.9064 32.2593 42.3953C32.3837 42.1498 32.5865 42.0133 32.7747 41.8345C34.2487 40.4335 35.9697 40.6724 37.7022 41.0917C44.5748 42.7528 49.1996 46.9072 51.5849 53.5207C52.0004 54.6747 52.3832 55.84 52.7758 57.0021C53.6216 59.5019 51.9726 61.6522 49.9702 61.9107C49.9456 61.9139 49.926 61.9692 49.9047 62C34.229 62 18.555 62 2.88088 62Z" fill="#004BFF"/>
<path d="M13.8352 21.4268C13.8925 17.682 14.5763 14.5305 16.636 11.8129C19.1651 8.47451 22.581 6.80691 26.7674 6.91906C32.9481 7.08647 37.4617 11.0084 38.7999 17.3098C39.6195 21.1716 39.1451 24.9651 37.8739 28.6709C36.7844 31.8436 35.1533 34.683 32.6029 36.9406C32.5424 36.9942 32.4818 37.0479 32.4197 37.0999C31.6982 37.7013 31.6982 37.7013 30.9244 37.1486C28.8173 35.642 25.8497 36.3636 24.7192 38.6943C24.5147 39.1153 24.3479 39.1413 23.9569 39.0048C21.5716 38.1694 19.7606 36.5928 18.2866 34.6196C15.2732 30.5839 13.9432 25.9924 13.8352 21.4268Z" fill="#004BFF"/>
<path d="M26.2014 4.68261C21.4964 4.82239 17.4294 6.61026 14.4373 10.5289C12.9158 12.5232 12.0439 14.8036 11.5972 17.2546C11.5662 17.4301 11.5547 17.5618 11.6987 17.6853C12.2156 18.1355 12.3547 18.7564 12.3563 19.3838C12.3661 22.4085 12.3661 25.4349 12.322 28.4596C12.3056 29.5779 11.6578 30.2524 10.5797 30.4767C9.63737 30.6733 8.87011 30.2572 8.37605 29.2057C8.22718 28.8887 7.99487 28.9521 7.77893 28.9212C5.89104 28.6547 4.52665 27.6762 3.66614 25.9875C2.11853 22.9514 4.29435 19.0051 7.70858 18.6881C8.09794 18.6524 8.36296 18.5662 8.46439 18.168C8.48893 18.0737 8.54292 17.96 8.61817 17.9128C9.33472 17.4756 9.19567 16.7767 9.22348 16.1071C9.49341 9.92106 12.461 5.34575 17.8384 2.37463C22.3602 -0.12513 27.1863 -0.697247 32.1726 0.872826C36.3721 2.19422 39.4428 4.91178 41.635 8.6598C43.127 11.21 43.8501 13.9584 43.7928 16.9067C43.7879 17.1847 43.8026 17.4236 44.0857 17.5699C44.1724 17.6138 44.2689 17.6934 44.3 17.7796C44.5764 18.5565 45.2079 18.6507 45.9326 18.7905C48.3391 19.2586 49.9227 21.4479 49.8033 23.9916C49.6773 26.6409 48.0299 28.536 45.5433 28.8627C45.0705 28.9245 44.6222 28.9667 44.4995 29.5421C44.4848 29.6152 44.4292 29.7079 44.367 29.7388C43.5278 30.1614 43.7094 30.9318 43.7094 31.6339C43.7127 33.7989 43.1581 35.7395 41.4452 37.2121C40.3066 38.1905 38.9553 38.7805 37.5451 39.2453C35.4102 39.9491 33.2164 40.44 31.0389 40.9845C30.7068 41.0673 30.5023 41.2039 30.3436 41.5436C29.8152 42.6716 28.4541 43.0275 27.3319 42.3855C26.3061 41.7987 25.9985 40.3928 26.6709 39.3721C27.3351 38.3644 28.7322 38.1255 29.7154 38.8488C29.8872 38.9755 30.0214 39.1299 30.3011 39.0552C32.8794 38.3677 35.51 37.8654 38.0244 36.9471C40.2035 36.1507 41.2931 34.5498 41.509 32.3003C41.545 31.92 41.5859 31.538 41.6154 31.1561C41.6595 30.5937 41.6612 30.0736 41.1426 29.6461C40.7319 29.3081 40.7041 28.7538 40.7009 28.2451C40.678 25.4414 40.6551 22.6377 40.6534 19.8356C40.6534 19.0457 40.709 18.2509 41.3585 17.6625C41.5123 17.5244 41.4469 17.383 41.419 17.2221C40.3033 10.7841 35.5165 6.01051 29.0431 4.89715C28.1596 4.74762 27.2648 4.70699 26.2014 4.68261Z" fill="#004BFF"/>
</svg>
