<svg width="11" height="11" viewBox="0 0 11 11" fill="none" xmlns="http://www.w3.org/2000/svg">
<path d="M3.64913 10.3253V8.64359C3.64913 8.21429 3.99969 7.86627 4.43214 7.86627H6.01294C6.2206 7.86627 6.41977 7.94816 6.56661 8.09394C6.71345 8.23972 6.79595 8.43743 6.79595 8.64359V10.3253C6.79464 10.5038 6.86514 10.6754 6.9918 10.8021C7.11847 10.9288 7.29083 11 7.47062 11H8.5491C9.0528 11.0013 9.53631 10.8036 9.89294 10.4504C10.2496 10.0973 10.45 9.61784 10.45 9.1178V4.32677C10.45 3.92285 10.2696 3.53971 9.95754 3.28057L6.28871 0.371728C5.65051 -0.138291 4.73611 -0.121824 4.11697 0.410838L0.531857 3.28057C0.205007 3.53207 0.00965376 3.91635 0 4.32677V9.11292C0 10.1551 0.85106 11 1.9009 11H2.95476C3.32817 11 3.63165 10.7009 3.63435 10.3302L3.64913 10.3253Z" fill="white"/>
</svg>
