<svg width="10" height="11" viewBox="0 0 10 11" fill="none" xmlns="http://www.w3.org/2000/svg">
<path fill-rule="evenodd" clip-rule="evenodd" d="M0 4.57477C0 2.04484 2.11413 0 4.6714 0C7.23587 0 9.35 2.04484 9.35 4.57477C9.35 5.84963 8.88635 7.0332 8.12323 8.03637C7.28134 9.14293 6.24369 10.1071 5.0757 10.8638C4.80838 11.0387 4.56713 11.0519 4.27375 10.8638C3.0991 10.1071 2.06145 9.14293 1.22678 8.03637C0.463091 7.0332 0 5.84963 0 4.57477ZM3.13188 4.71723C3.13188 5.56475 3.82347 6.23133 4.67145 6.23133C5.51999 6.23133 6.21823 5.56475 6.21823 4.71723C6.21823 3.8763 5.51999 3.17727 4.67145 3.17727C3.82347 3.17727 3.13188 3.8763 3.13188 4.71723Z" fill="white"/>
</svg>
