<svg width="13" height="11" viewBox="0 0 13 11" fill="none" xmlns="http://www.w3.org/2000/svg">
<path fill-rule="evenodd" clip-rule="evenodd" d="M9.12939 0C9.94889 0 10.7372 0.323889 11.3172 0.905056C11.8977 1.485 12.2222 2.26722 12.2222 3.08611V7.91389C12.2222 9.61889 10.835 11 9.12939 11H3.09222C1.38661 11 0 9.61889 0 7.91389V3.08611C0 1.38111 1.3805 0 3.09222 0H9.12939ZM10.1016 3.99664L10.1505 3.94776C10.2966 3.77053 10.2966 3.51387 10.1438 3.33664C10.0588 3.24559 9.94212 3.18998 9.82051 3.17776C9.69218 3.17103 9.56996 3.21442 9.47768 3.29998L6.72218 5.49998C6.36774 5.79392 5.8599 5.79392 5.49996 5.49998L2.74996 3.29998C2.5599 3.15942 2.29712 3.17776 2.13885 3.34276C1.97385 3.50776 1.95551 3.77053 2.09546 3.95387L2.17551 4.03331L4.95607 6.20276C5.29829 6.47164 5.71324 6.61831 6.14774 6.61831C6.58101 6.61831 7.00329 6.47164 7.3449 6.20276L10.1016 3.99664Z" fill="white"/>
</svg>
