<svg width="53" height="63" viewBox="0 0 53 63" fill="none" xmlns="http://www.w3.org/2000/svg">
<path fill-rule="evenodd" clip-rule="evenodd" d="M25.6523 62.0838C25.9975 62.2641 26.3836 62.3559 26.7697 62.3528C27.1557 62.3497 27.5386 62.255 27.887 62.0715L39.0104 56.1253C42.1648 54.4439 44.6349 52.5637 46.562 50.3748C50.7521 45.6056 53.0402 39.5187 52.9994 33.2423L52.8676 12.5391C52.855 10.1545 51.2888 8.02673 48.9725 7.25326L28.2794 0.310406C27.0333 -0.111485 25.668 -0.102313 24.4439 0.331806L3.82923 7.52229C1.52546 8.32633 -0.0124783 10.4694 7.62948e-05 12.8571L0.1319 33.545C0.172702 39.8306 2.53925 45.8899 6.7984 50.6102C8.74437 52.7685 11.2365 54.6212 14.4253 56.2751L25.6523 62.0838ZM22.7075 37.7514C23.172 38.1977 23.7746 38.4179 24.3772 38.4117C24.9799 38.4087 25.5793 38.1824 26.0376 37.73L38.1936 25.7458C39.1069 24.844 39.0975 23.3949 38.1748 22.5052C37.2489 21.6156 35.758 21.6217 34.8447 22.5236L24.3427 32.8752L20.0428 28.7419C19.1169 27.8522 17.6291 27.8614 16.7126 28.7633C15.7993 29.6651 15.8087 31.1142 16.7346 32.0039L22.7075 37.7514Z" fill="#004BFF"/>
</svg>
