<svg width="53" height="54" viewBox="0 0 53 54" fill="none" xmlns="http://www.w3.org/2000/svg">
<path fill-rule="evenodd" clip-rule="evenodd" d="M23.0666 4.70035C21.2902 4.70035 19.7789 5.93477 19.3547 7.59856H33.6188C33.1946 5.93477 31.6834 4.70035 29.907 4.70035H23.0666ZM37.6488 7.59856H42.8984C48.4662 7.59856 53 12.1874 53 17.8228C53 17.8228 52.8409 20.2085 52.7879 23.5307C52.7826 23.7937 52.6553 24.0513 52.4459 24.2069C51.1706 25.1488 50.004 25.9271 49.8979 25.9807C45.4967 28.9326 40.3823 31.0097 34.9339 32.0428C34.5786 32.1126 34.2286 31.9274 34.0483 31.6108C32.5212 28.9648 29.6683 27.242 26.4867 27.242C23.3264 27.242 20.447 28.946 18.8748 31.5947C18.6918 31.906 18.3472 32.0858 17.9945 32.0187C12.5911 30.9828 7.47674 28.9085 3.10205 26.0076L0.556778 24.2364C0.344672 24.1023 0.212106 23.8608 0.212106 23.5924C0.132566 22.2238 0 17.8228 0 17.8228C0 12.1874 4.53377 7.59856 10.1016 7.59856H15.3247C15.8284 3.70744 19.0895 0.675049 23.0665 0.675049H29.907C33.8839 0.675049 37.1451 3.70744 37.6488 7.59856ZM52.0985 29.3354L51.9925 29.3891C46.6368 32.985 40.1941 35.3734 33.4332 36.3663C32.4787 36.5004 31.5243 35.8832 31.2591 34.9172C30.6758 32.7167 28.7934 31.2676 26.5398 31.2676H26.5132H26.4602C24.2066 31.2676 22.3241 32.7167 21.7409 34.9172C21.4757 35.8832 20.5212 36.5004 19.5668 36.3663C12.8059 35.3734 6.36317 32.985 1.00749 29.3891C0.980977 29.3622 0.715844 29.2012 0.503738 29.3354C0.265119 29.4696 0.265119 29.7916 0.265119 29.7916L0.450712 43.4776C0.450712 49.113 4.95797 53.675 10.5257 53.675H42.4477C48.0155 53.675 52.5227 49.113 52.5227 43.4776L52.7349 29.7916C52.7349 29.7916 52.7349 29.4696 52.4962 29.3354C52.3637 29.2549 52.2046 29.2817 52.0985 29.3354ZM28.4753 40.5794C28.4753 41.7065 27.6004 42.592 26.4868 42.592C25.3998 42.592 24.4983 41.7065 24.4983 40.5794V37.1176C24.4983 36.0174 25.3998 35.105 26.4868 35.105C27.6004 35.105 28.4753 36.0174 28.4753 37.1176V40.5794Z" fill="#004BFF"/>
</svg>
